<?xml version="1.0" standalone="no"?><!DOCTYPE svg PUBLIC "-//W3C//DTD SVG 1.1//EN" "http://www.w3.org/Graphics/SVG/1.1/DTD/svg11.dtd"><svg t="1535695582526" class="icon" style="" viewBox="0 0 1024 1024" version="1.1" xmlns="http://www.w3.org/2000/svg" p-id="11939" xmlns:xlink="http://www.w3.org/1999/xlink" width="128" height="128"><defs><style type="text/css"></style></defs><path d="M104.791 867.96c0.01-230.14 186.577-416.698 416.714-416.698 230.139 0 416.706 186.558 416.713 416.697" fill="#F4F4F4" p-id="11940"></path><path d="M147.569 864.399c0-206.541 167.433-373.974 373.973-373.974 206.538 0 373.971 167.433 373.971 373.974" fill="#E5E5E5" p-id="11941"></path><path d="M694.174 822.05H348.873c-5.903 0-10.686-4.783-10.686-10.686 0-69.736 35.01-134.915 91.072-170.104 5.023-3.171 177.334-4.486 182.463-1.424 57.45 34.904 93.209 100.654 93.352 171.528 0 5.903-4.786 10.686-10.685 10.686" fill="#FFFFFF" p-id="11942"></path><path d="M521.542 677.054c-131.792 0-238.633-106.838-238.633-238.63s106.841-238.63 238.633-238.63c131.79 0 238.63 106.837 238.63 238.63-0.217 131.702-106.93 238.415-238.63 238.63" fill="#FFFFFF" p-id="11943"></path><path d="M687.263 287.196a698.544 698.544 0 0 1 19.091 68.35c19.663 87.756-70.59 239.663-165.76 248.71-95.166 9.045-184.955-17.24-184.955-17.24l5.023 24.931 108.489 50.613 109.733-0.892 83.022-39.463 65-89.255 24.469-105.104s-45.197-129.501-64.112-140.65" fill="#F2F2F2" p-id="11944"></path><path d="M521.542 221.13c-119.99 0-217.261 97.268-217.261 217.258S401.553 655.65 521.542 655.65c119.987 0 217.26-97.272 217.26-217.262a217.248 217.248 0 0 0-63.635-153.624 217.248 217.248 0 0 0-153.625-63.634m0 455.889c-131.792 0-238.633-106.839-238.633-238.63s106.841-238.63 238.633-238.63c131.79 0 238.63 106.837 238.63 238.63-0.217 131.702-106.93 238.415-238.63 238.63" fill="#C8C8C8" p-id="11945"></path><path d="M667.105 724.601s2.246-36.433-11.54-30.52c-31.2 43.628-65.64 70.839-124.16 76.751-103.465 10.436-167.396-24.93-167.396-24.93l-10.686 44.948-4.45 20.479h345.48v-49.862l-27.248-36.866z m0 0" fill="#F2F2F2" p-id="11946"></path><path d="M694.174 822.05H348.873c-5.903 0-10.686-4.783-10.686-10.686 0-69.736 35.01-134.915 91.072-170.104 5.048-3.059 11.616-1.498 14.751 3.506 3.133 5 1.671 11.591-3.282 14.8-47.05 29.277-77.11 82.667-80.673 140.9h323.008c-3.564-59.231-34.479-113.082-82.632-142.288-4.99-3.145-6.54-9.714-3.477-14.759 3.061-5.042 9.6-6.702 14.697-3.727 57.45 34.905 93.21 100.654 93.35 171.53 0 5.9-4.783 10.687-10.683 10.687M626.86 549.973a10.79 10.79 0 0 1 1.616 10.664 10.78 10.78 0 0 1-18.463 2.803 113.549 113.549 0 0 0-88.406-42.634 113.552 113.552 0 0 0-88.608 42.205c-3.747 4.633-10.542 5.35-15.171 1.602-4.633-3.746-5.353-10.541-1.603-15.174A135.1 135.1 0 0 1 521.67 499.22a135.105 135.105 0 0 1 105.19 50.753M199.782 870.487H78.685a3.56 3.56 0 0 1-3.561-3.56 3.56 3.56 0 0 1 3.561-3.562h121.097a3.56 3.56 0 1 1 0 7.122M352.932 870.487H231.836a3.56 3.56 0 1 1 0-7.121h121.096a3.56 3.56 0 0 1 3.562 3.56 3.56 3.56 0 0 1-3.562 3.56M793.224 870.487H377.865a3.56 3.56 0 0 1-3.561-3.56 3.56 3.56 0 0 1 3.561-3.562h415.36a3.56 3.56 0 0 1 3.56 3.561 3.56 3.56 0 0 1-3.56 3.56M964.362 870.487H818.333a3.56 3.56 0 0 1-3.084-5.34 3.557 3.557 0 0 1 3.084-1.782h146.029a3.56 3.56 0 0 1 3.561 3.561 3.56 3.56 0 0 1-3.561 3.56" fill="#C8C8C8" p-id="11947"></path></svg>