<?xml version="1.0" encoding="UTF-8"?>
<svg width="22px" height="11px" viewBox="0 0 22 11" version="1.1" xmlns="http://www.w3.org/2000/svg" xmlns:xlink="http://www.w3.org/1999/xlink">
    <!-- Generator: Sketch 63 (92445) - https://sketch.com -->
    <title>编组备份 6</title>
    <desc>Created with Sketch.</desc>
    <defs>
        <linearGradient x1="0%" y1="37.5%" x2="95.773653%" y2="61.0611193%" id="linearGradient-1">
            <stop stop-color="#FF685A" offset="0%"></stop>
            <stop stop-color="#FF3927" offset="100%"></stop>
        </linearGradient>
    </defs>
    <g id="PC端" stroke="none" stroke-width="1" fill="none" fill-rule="evenodd">
        <g id="画板" transform="translate(-860.000000, -375.000000)">
            <g id="编组备份-6" transform="translate(860.000000, 375.000000)">
                <g id="编组-4">
                    <rect id="矩形" fill="url(#linearGradient-1)" x="0" y="0" width="22" height="11" rx="2.4"></rect>
                    <path d="M4.42349988,8.21463087 L4.42349988,5.35120805 L6.25801029,8.21463087 L7.68485171,8.21463087 L7.68485171,3 L6.25801029,3 L6.25801029,5.8847651 L4.41347523,3 L3,3 L3,8.21463087 L4.42349988,8.21463087 Z M10.4750451,8.3 C11.0163761,8.3 11.431842,8.21759508 11.7214429,8.05278523 C12.0110438,7.88797539 12.2583185,7.6158613 12.4632668,7.23644295 L12.4632668,7.23644295 L11.1233056,7.10483221 C11.0386531,7.21865772 10.9595697,7.29809843 10.8860557,7.34315436 C10.7657599,7.4142953 10.638781,7.44986577 10.5051191,7.44986577 C10.2934876,7.44986577 10.1219548,7.36805369 9.99052053,7.20442953 C9.89695716,7.09060403 9.83792313,6.91749441 9.81341843,6.68510067 L9.81341843,6.68510067 L12.5401224,6.68510067 L12.5401224,6.52147651 C12.5401224,6.02348993 12.4632668,5.61917226 12.3095555,5.30852349 C12.1558443,4.99787472 11.9319605,4.76073826 11.6379042,4.59711409 C11.3438479,4.43348993 10.942862,4.35167785 10.4349466,4.35167785 C9.80896304,4.35167785 9.31831226,4.53427293 8.96299421,4.89946309 C8.60767617,5.26465324 8.43001714,5.74248322 8.43001714,6.33295302 C8.43001714,6.74794183 8.51856819,7.1089821 8.69567029,7.41607383 C8.87277239,7.72316555 9.09609925,7.94725951 9.36565087,8.0883557 C9.63520249,8.2294519 10.0050006,8.3 10.4750451,8.3 Z M11.1567211,5.99147651 L9.81675998,5.99147651 C9.83903698,5.76619687 9.89138791,5.5966443 9.97381279,5.48281879 C10.1030193,5.30022371 10.275666,5.20892617 10.4917529,5.20892617 C10.6788796,5.20892617 10.8298063,5.26939597 10.9445328,5.39033557 C11.0592593,5.51127517 11.1299887,5.71165548 11.1567211,5.99147651 L11.1567211,5.99147651 Z M15.2969004,8.21463087 L15.9919426,5.94167785 L16.7103756,8.21463087 L17.9200163,8.21463087 L19.226562,4.43704698 L17.9200163,4.43704698 L17.3486115,6.81671141 L16.6001045,4.43704698 L15.373756,4.43704698 L14.6519814,6.81671141 L14.0805765,4.43704698 L12.7640062,4.43704698 L14.0805765,8.21463087 L15.2969004,8.21463087 Z" id="New" fill="#FFFFFF" fill-rule="nonzero"></path>
                </g>
            </g>
        </g>
    </g>
</svg>